<svg xmlns="http://www.w3.org/2000/svg" viewBox="0 0 84.9 119.83"><defs><style>.cls-1{fill:#46529f;}.cls-2{fill:#4960a9;}.cls-3{fill:#f0f0f1;}.cls-4{fill:#12100b;}.cls-5{fill:#fff;}</style></defs><title>logiciel (7)</title><g id="Calque_2" data-name="Calque 2"><g id="ProposPC"><g id="logiciel"><g id="layer1"><g id="g3013"><polygon id="polygon2989" class="cls-1" points="84.9 23.55 77.16 110.19 42.4 119.83 7.73 110.21 0 23.55 84.9 23.55"/><polygon id="polygon2991" class="cls-2" points="70.54 104.67 77.15 30.64 42.45 30.64 42.45 112.46 70.54 104.67"/><polygon id="polygon2993" class="cls-3" points="17.71 62.77 18.66 73.4 42.45 73.4 42.45 62.77 17.71 62.77"/><polygon id="polygon2995" class="cls-3" points="42.45 41.26 42.41 41.26 15.8 41.26 16.76 51.89 42.45 51.89 42.45 41.26"/><polygon id="polygon2997" class="cls-3" points="42.45 101.44 42.45 90.38 42.4 90.39 30.57 87.19 29.81 78.72 24.06 78.72 19.14 78.72 20.63 95.4 42.4 101.45 42.45 101.44"/><path id="path2999" class="cls-4" d="M20,0H32.85V5.38H25.36v5.39h7.49v5.38H20Z"/><path id="path3001" class="cls-4" d="M35.43,0H48.3V4.68H40.81v.94H48.3V16.38H35.43V11.47h7.49v-.94H35.43Z"/><path id="path3003" class="cls-4" d="M50.87,0H63.75V4.68H56.26v.94h7.49V16.38H50.87V11.47h7.49v-.94H50.87Z"/><polygon id="polygon3005" class="cls-5" points="55.5 73.4 54.27 87.19 42.41 90.39 42.41 101.44 64.2 95.4 64.36 93.61 66.86 65.63 67.12 62.77 69.03 41.26 42.41 41.26 42.41 51.89 57.39 51.89 56.42 62.77 42.41 62.77 42.41 73.4 55.5 73.4"/></g></g></g></g></g></svg>