<svg xmlns="http://www.w3.org/2000/svg" viewBox="0 0 81.39 114.87"><defs><style>.cls-1{fill:#12100b;}.cls-2{fill:#de4114;}.cls-3{fill:#e95c1b;}.cls-4{fill:#f0f0f1;}.cls-5{fill:#fff;}</style></defs><title>logiciel (6)</title><g id="Calque_2" data-name="Calque 2"><g id="ProposPC"><g id="logiciel"><path class="cls-1" d="M7.58,0h5.16V5.12H17.5V0h5.16V15.48H17.5V10.32H12.79v5.16H7.58M29.48,5.16H24.93V0H39.22V5.16H34.64V15.48H29.48M41.48,0h5.41l3.32,5.45L53.53,0h5.41V15.48H53.78V7.81l-3.62,5.56L46.55,7.81v7.67H41.48M61.49,0h5.16V10.36H74v5.12H61.49"/><path class="cls-2" d="M7.4,105.67,0,22.57H81.39L74,105.62l-33.36,9.25"/><path class="cls-3" d="M40.7,107.8V29.39H74l-6.35,70.89"/><path class="cls-4" d="M15.12,39.55H40.7V49.74H26.29l.95,10.43H40.7V70.33H17.9m.45,5.12H28.58l.72,8.14,11.4,3V97.28L19.79,91.44"/><path class="cls-5" d="M66.18,39.55H40.65V49.74H65.24m-.92,10.43H40.65V70.36H53.22L52,83.59l-11.38,3V97.23l20.87-5.79"/></g></g></g></svg>