<svg xmlns="http://www.w3.org/2000/svg" viewBox="0 0 98.64 96.83"><defs><style>.cls-1{fill:none;stroke:#354f73;stroke-miterlimit:10;stroke-width:7px;}.cls-2{fill:#354f73;}</style></defs><title>logiciel (16)</title><g id="Calque_2" data-name="Calque 2"><g id="ProposPC"><g id="logiciel"><ellipse class="cls-1" cx="49.32" cy="48.41" rx="45.82" ry="44.91"/><path class="cls-2" d="M64,42.29a6.09,6.09,0,0,0-2.53-.43c-5.54,0-9.41,4.25-9.41,11.34,0,8.07,4,11.34,8.89,11.34A7.64,7.64,0,0,0,64,64Zm-2.27-7a21.15,21.15,0,0,1,2.27.08V24a.4.4,0,0,1,.43-.43h7c.34,0,.43.12.43.34V64A33.15,33.15,0,0,0,72,68.36c0,.3-.08.34-.38.51a26.16,26.16,0,0,1-11.26,2.54c-9.49,0-16.28-5.89-16.28-17.87,0-10.27,6.75-18.25,17.62-18.25ZM36.5,70.21c0,.43-.08.55-.56.55H29.33c-.43,0-.56-.21-.56-.55V24.07c0-.43.22-.55.56-.55H36c.34,0,.51.12.51.51Z"/></g></g></g></svg>