<svg xmlns="http://www.w3.org/2000/svg" viewBox="0 0 85.37 119.98"><defs><style>.cls-1{fill:#f29100;}.cls-2{fill:#1d1d1b;}.cls-3{fill:#f1bd00;}.cls-4{fill:#fff;}</style></defs><title>logiciel (8)</title><g id="Calque_2" data-name="Calque 2"><g id="ProposPC"><g id="logiciel"><polygon class="cls-1" points="0 23.45 85.37 23.45 76.88 110.15 42.69 119.98 7.21 109.94 0 23.45"/><polygon class="cls-2" points="58.08 5.24 58.08 0 45.47 0 45.47 5.24 50.55 10.81 45.47 10.81 45.47 15.4 58.08 15.4 58.08 10.48 53.5 5.24 58.08 5.24"/><polygon class="cls-2" points="34.5 0 39.58 0 39.58 15.4 27.13 15.4 27.13 10.81 34.58 10.81 34.5 0"/><polygon class="cls-3" points="42.69 29.59 77.52 29.59 70.75 105.03 42.69 112.53 42.69 29.59"/><polygon class="cls-4" points="67.04 57.49 65.29 41.52 21.66 41.52 19.65 72.58 55.76 73.52 55.16 87.19 42.69 90.25 30.35 86.76 30.35 78.4 19.65 78.4 20.74 95.38 43.34 101.39 64.64 95.38 67.04 62.73 29.91 62.73 30.57 51.38 55.76 51.81 56.55 58.53 67.04 58.53 67.04 57.49"/></g></g></g></svg>