<svg xmlns="http://www.w3.org/2000/svg" viewBox="0 0 92.09 119.47"><defs><style>.cls-1,.cls-2{fill:#354f73;}.cls-2{font-size:20.61px;font-family:Tahoma-Bold, Tahoma;font-weight:700;}</style></defs><title>logiciel</title><g id="Calque_2" data-name="Calque 2"><g id="ProposPC"><g id="logiciel"><path class="cls-1" d="M68.62,0,0,9.66,10.2,93.57,85.32,81.5ZM3,11.67l63.72-9L81.63,78.34l-69,11.08Z"/><polygon class="cls-1" points="64.39 75.66 28.98 81.09 26.56 66.81 61.34 61.48 64.39 75.66"/><path class="cls-1" d="M39.94,13.08c-13.5,0-24.45,10.62-24.45,23.73s11,23.72,24.45,23.72S64.39,49.91,64.39,36.81,53.45,13.08,39.94,13.08Zm-.3,32.83A9.91,9.91,0,1,1,49.55,36,9.91,9.91,0,0,1,39.64,45.91Z"/><text class="cls-2" transform="translate(2.43 110.84) scale(0.77 1)">Logic Pro X</text></g></g></g></svg>