<svg xmlns="http://www.w3.org/2000/svg" xmlns:xlink="http://www.w3.org/1999/xlink" viewBox="0 0 84.03 75.49"><defs><style>.cls-1{fill:url(#Dégradé_sans_nom_18);}.cls-2{fill:url(#Dégradé_sans_nom_17);}.cls-3{fill:#2da2a5;}.cls-4{fill:#217677;}.cls-5{fill:#1f6160;}.cls-6{fill:#20595a;}.cls-7{fill:#227677;}.cls-8{fill:#1f5050;}.cls-10,.cls-9{opacity:0.5;isolation:isolate;}.cls-9{fill:url(#Dégradé_sans_nom_5);}.cls-10{fill:url(#Dégradé_sans_nom_16);}.cls-11{fill:url(#Dégradé_sans_nom_5-2);}.cls-12{fill:#289092;}.cls-13{fill:#289594;}</style><linearGradient id="Dégradé_sans_nom_18" x1="-0.35" y1="-2474.04" x2="84.22" y2="-2424.24" gradientTransform="matrix(1, 0, 0, -1, 0, -2399.79)" gradientUnits="userSpaceOnUse"><stop offset="0" stop-color="#7cc9d5"/><stop offset="1" stop-color="#009597"/></linearGradient><linearGradient id="Dégradé_sans_nom_17" x1="2.22" y1="-2436.67" x2="75.56" y2="-2420.93" gradientTransform="matrix(1, 0, 0, -1, 0, -2399.79)" gradientUnits="userSpaceOnUse"><stop offset="0" stop-color="#3db4b7"/><stop offset="1" stop-color="#0b6767"/></linearGradient><linearGradient id="Dégradé_sans_nom_5" x1="50.24" y1="-2462.75" x2="50.51" y2="-2462.98" gradientTransform="matrix(1, 0, 0, -1, 0, -2399.79)" gradientUnits="userSpaceOnUse"><stop offset="0" stop-color="#0b6767"/><stop offset="1" stop-color="#009597"/></linearGradient><linearGradient id="Dégradé_sans_nom_16" x1="62.39" y1="-2448.4" x2="62.51" y2="-2448.51" gradientTransform="matrix(1, 0, 0, -1, 0, -2399.79)" gradientUnits="userSpaceOnUse"><stop offset="0" stop-color="#183e3e"/><stop offset="1" stop-color="#0b6767"/></linearGradient><linearGradient id="Dégradé_sans_nom_5-2" x1="74.75" y1="-2433.53" x2="74.97" y2="-2433.72" xlink:href="#Dégradé_sans_nom_5"/></defs><title>logiciel (9)</title><g id="Calque_2" data-name="Calque 2"><g id="ProposPC"><g id="logiciel"><polygon class="cls-1" points="84.03 75.49 84.03 23.14 41.8 0 0 23.12 0 75.49 16.54 75.49 24.32 52.13 42.02 73.47 58.87 53.11 66.08 75.49 84.03 75.49"/><polygon class="cls-2" points="41.8 0 0 23.14 24.32 52.13 31.48 30.85 41.8 0 51.72 30.85 58.87 53.11 84.03 23.14 41.8 0"/><polygon class="cls-3" points="16.54 75.49 41.8 0 16.54 30.85 16.54 75.49"/><polygon class="cls-4" points="66.08 75.49 41.8 0 65.95 30.85 65.98 44.11 66.08 75.49"/><polygon class="cls-5" points="27.2 43.6 41.8 0 16.54 30.85 27.2 43.6"/><polygon class="cls-6" points="55.82 43.6 41.8 0 65.95 30.85 55.82 43.6"/><polygon class="cls-7" points="16.54 42.86 24.32 52.13 27.2 43.6 16.54 30.85 16.54 42.86"/><polygon class="cls-8" points="65.98 44.66 58.87 53.11 55.82 43.6 65.95 30.85 65.98 44.66"/><polygon class="cls-9" points="41.68 73.04 42.02 73.47 58.92 53.23 58.75 52.7 41.68 73.04"/><polygon class="cls-10" points="65.98 44.11 58.75 52.7 58.92 53.23 65.98 44.78 65.98 44.11"/><polygon class="cls-11" points="83.7 22.98 65.98 44.11 65.98 44.78 84.03 23.14 83.7 22.98"/><polygon class="cls-12" points="41.8 0 27.2 43.6 42.02 58.63 55.82 43.6 41.8 0"/><polygon class="cls-13" points="41.8 0 42.02 58.63 55.82 43.6 41.8 0"/></g></g></g></svg>