<svg xmlns="http://www.w3.org/2000/svg" viewBox="0 0 97.99 99.81"><defs><style>.cls-1{fill:#354f73;}</style></defs><title>logiciel (12)</title><g id="Calque_2" data-name="Calque 2"><g id="ProposPC"><g id="logiciel"><path class="cls-1" d="M49,0h0A49,49,0,0,0,0,49v1.83a49,49,0,0,0,49,49h0a49,49,0,0,0,49-49V49A49,49,0,0,0,49,0ZM91,50.07a42,42,0,0,1-42,42h0a42,42,0,0,1-42-42v-.33a42,42,0,0,1,42-42h0a42,42,0,0,1,42,42Z"/><path class="cls-1" d="M50.43,39.85a15.62,15.62,0,0,1-.87,6.09,12.86,12.86,0,0,1-2.47,4.59,15.18,15.18,0,0,1-5,3.66,17,17,0,0,1-7.24,1.67H31.16v13c0,.24,0,.85-.19,1-.48.39-3.29.29-4.14.29s-3.84,0-4.07-.36a2.31,2.31,0,0,1-.15-.92V28.63c0-1.08-.15-2.39.39-2.93s1.63-.32,2.5-.32l9.79-.3a15,15,0,0,1,3,.32c.89.11,1.93.36,3.19.62a7.73,7.73,0,0,1,3.32,1.82,17.61,17.61,0,0,1,2.91,3,12.44,12.44,0,0,1,2,4A16.1,16.1,0,0,1,50.43,39.85Zm-8.51.45a9.85,9.85,0,0,0-.6-4.14,9.08,9.08,0,0,0-1.47-2.23,5.71,5.71,0,0,0-2.43-1.46A7.6,7.6,0,0,0,34.83,32H31.17l0,16.86h3.93a6.85,6.85,0,0,0,3.64-1.28,7.49,7.49,0,0,0,2-2.09,9.12,9.12,0,0,0,1-2.62A6.85,6.85,0,0,0,41.92,40.3ZM75.4,59.47a10.87,10.87,0,0,1-.93,4.63,10.31,10.31,0,0,1-2.54,3.74,12.1,12.1,0,0,1-4,2.22,18.31,18.31,0,0,1-8.2.26,16.09,16.09,0,0,1-2.63-.79,11.84,11.84,0,0,1-1.93-.88,6,6,0,0,1-1.24-.81,13.11,13.11,0,0,1-.36-3.54,28,28,0,0,1,.23-3.75.9.9,0,0,1,.48-.19,5.78,5.78,0,0,1,1.35.76c.46.29,1,.54,1.73.89a14.37,14.37,0,0,0,2.15.81,10.35,10.35,0,0,0,3.19.59,8.77,8.77,0,0,0,1.92,0c2.11-.47,2.26-1.19,2.51-3.07.12-1-2-3-4.25-3.63a19.39,19.39,0,0,1-7.25-5A9.61,9.61,0,0,1,54,49.1a10.34,10.34,0,0,1-.6-3.73,10,10,0,0,1,.81-4.06,8.94,8.94,0,0,1,2.34-3.16,10.72,10.72,0,0,1,3.73-2,15.41,15.41,0,0,1,4.92-.73,16.35,16.35,0,0,1,2.65.21,18.4,18.4,0,0,1,2.33.52,10.05,10.05,0,0,1,1.75.67,5.92,5.92,0,0,1,1,.62,2,2,0,0,1,.44.52,2.51,2.51,0,0,1,.19.62c0,.25.08,2,.08,2.57a26.83,26.83,0,0,1-.18,3.1c-.13.21-.22.3-.39.3a5.34,5.34,0,0,1-1.25-.63c-.41-.24-1.05-.52-1.66-.8a16.2,16.2,0,0,0-4.92-.8c-1.52.1-3.7,1-3.75,2.73s3.27,3.6,4.12,3.92,1.73.68,2.6,1a23.71,23.71,0,0,1,2.6,1.34,9.78,9.78,0,0,1,2.3,1.86,8.68,8.68,0,0,1,1.62,2.65A9.76,9.76,0,0,1,75.4,59.47Z"/></g></g></g></svg>