<svg xmlns="http://www.w3.org/2000/svg" viewBox="0 0 102.64 104.55"><defs><style>.cls-1{fill:#354f73;}</style></defs><title>logiciel (15)</title><g id="Calque_2" data-name="Calque 2"><g id="ProposPC"><g id="logiciel"><path class="cls-1" d="M51.32,0h0A51.32,51.32,0,0,0,0,51.32v1.91a51.32,51.32,0,0,0,51.32,51.32h0a51.32,51.32,0,0,0,51.32-51.32V51.32A51.32,51.32,0,0,0,51.32,0Zm44,52.45a44,44,0,0,1-44,44h0a44,44,0,0,1-44-44V52.1a44,44,0,0,1,44-44h0a44,44,0,0,1,44,44Z"/><path class="cls-1" d="M42.07,49.45c-1.11-3.56-6-4.66-9.75-4.66H21.13L15.68,72.91h6.18l1.27-7.44a37.67,37.67,0,0,0,8-.16,12,12,0,0,0,6.8-3.23C43.16,57.1,43,52.35,42.07,49.45Zm-6,6s-.86,7.78-11.83,5.45l2.26-11.77S37.88,46.85,36,55.43Z"/><path class="cls-1" d="M90.27,49.45c-1.11-3.56-6-4.66-9.75-4.66H69.34L63.89,72.91h6.18l1.26-7.44a37.67,37.67,0,0,0,8-.16,12,12,0,0,0,6.8-3.23C91.37,57.1,91.18,52.35,90.27,49.45Zm-6,6s-.86,7.78-11.83,5.45l2.26-11.77S86.09,46.85,84.22,55.43Z"/><path class="cls-1" d="M46.66,37.35h6.18l-1.4,7.44h7.24a9.37,9.37,0,0,1,2.79.4c1.6.5,3.56,1.59,3.78,4a3.89,3.89,0,0,1-.06,1.13L62.74,65.4H56.63L59,51.85a2.17,2.17,0,0,0-.34-1.63,2.25,2.25,0,0,0-1.91-.91l-6.18-.13L47.52,65.4H41.21Z"/></g></g></g></svg>