<svg xmlns="http://www.w3.org/2000/svg" viewBox="0 0 99.02 97.19"><defs><style>.cls-1{fill:#354f73;}.cls-2{fill:none;stroke:#354f73;stroke-miterlimit:10;stroke-width:7px;}</style></defs><title>logiciel (13)</title><g id="Calque_2" data-name="Calque 2"><g id="ProposPC"><g id="logiciel"><path class="cls-1" d="M59.09,44.36V69.7c0,.33.13.46.46.46h6.26c.33,0,.46-.13.46-.46V44.56a22.92,22.92,0,0,1,7.54-.79c.33,0,.44-.07.44-.4V37.58c0-.33-.13-.4-.46-.4A41.43,41.43,0,0,0,59.2,40c-.27.13-.31.2-.31.53.19,2.23.19,3.42.19,3.88Z"/><path class="cls-1" d="M26.93,70.16h6.16c.33,0,.46-.13.46-.46V54.37c1.05,0,1.58.06,3.09.06C45.66,54.43,53,50.09,53,40c0-7.77-4.81-13.83-15.87-13.83-4,0-7.7.07-10.27.2-.33,0-.39.2-.39.46V69.7C26.47,70,26.6,70.16,26.93,70.16Zm6.62-37.58c.72-.07,2.24-.14,3.82-.14,5.33,0,8.45,2.57,8.45,7.64,0,6.32-4.37,8-9,8-1.58,0-2.3,0-3.22-.07Z"/><ellipse class="cls-2" cx="49.51" cy="48.6" rx="46.01" ry="45.1"/></g></g></g></svg>