<svg xmlns="http://www.w3.org/2000/svg" viewBox="0 0 97.66 97.66"><defs><style>.cls-1{fill:#354f73;}</style></defs><title>logiciel (17)</title><g id="Calque_2" data-name="Calque 2"><g id="ProposPC"><g id="logiciel"><path class="cls-1" d="M48.83,0A48.83,48.83,0,1,0,97.66,48.83,48.88,48.88,0,0,0,48.83,0ZM4.92,48.83A43.62,43.62,0,0,1,8.72,31l21,57.37A43.93,43.93,0,0,1,4.92,48.83Zm43.91,43.9a43.85,43.85,0,0,1-12.41-1.79L49.6,52.67l13.48,37a5,5,0,0,0,.32.61A43.83,43.83,0,0,1,48.83,92.73Zm6-64.48c2.64-.13,5-.41,5-.41a1.82,1.82,0,0,0-.27-3.62s-7.11.55-11.7.55c-4.31,0-11.56-.55-11.56-.55-2.36-.14-2.63,3.48-.27,3.62,0,0,2.24.28,4.61.41L47.53,47,37.92,75.8l-16-47.55c2.64-.13,5-.41,5-.41a1.82,1.82,0,0,0-.27-3.62s-7.11.55-11.7.55c-.82,0-1.79,0-2.83-.06a43.9,43.9,0,0,1,66.33-8.27,5.66,5.66,0,0,0-.57,0,7.61,7.61,0,0,0-7.37,7.8c0,3.62,2.09,6.67,4.32,10.29A23.11,23.11,0,0,1,78.48,46.6c0,3.76-1.44,8.11-3.35,14.2L70.76,75.43,54.87,28.25Zm16,58.52L84.31,48a41.5,41.5,0,0,0,3.34-15.73,32,32,0,0,0-.29-4.51,43.93,43.93,0,0,1-16.46,59Z"/></g></g></g></svg>