<svg xmlns="http://www.w3.org/2000/svg" xmlns:xlink="http://www.w3.org/1999/xlink" viewBox="0 0 600.32 663.67"><defs><style>.cls-1{fill:none;}.cls-2{fill:#354f73;}.cls-3{fill:#6f8ca6;}.cls-4{fill:#9bb9bf;}.cls-5{fill:#c3d5d9;}.cls-6{clip-path:url(#clip-path);}.cls-7{fill:#06132d;}.cls-8{fill:#0b2559;}.cls-9{fill:#8ca3b8;}</style><clipPath id="clip-path"><rect class="cls-1" x="198.87" y="77.77" width="327.51" height="327.51" rx="12"/></clipPath></defs><title>bulles</title><g id="Calque_2" data-name="Calque 2"><g id="ProposPC"><g id="bulles"><circle class="cls-2" cx="234.36" cy="228.35" r="228.35"/><circle class="cls-3" cx="429.54" cy="320.75" r="170.78"/><circle class="cls-4" cx="234.36" cy="440.25" r="132.56"/><circle class="cls-5" cx="386.27" cy="507.01" r="66.76"/><g class="cls-6"><image width="960" height="1280" transform="translate(198.87 60.49) scale(0.34)" xlink:href="../../../portfolio%202.0/maude.jpg"/></g><path class="cls-7" d="M106.9,35.34S35.47,232,56.35,295.77s241.75,22,192.3-7.69-133-252.74-133-252.74Z"/><path class="cls-7" d="M164,472.86V620.69a8.08,8.08,0,0,0,8.08,8.08H205s36.56-1,.65-15.73a7.89,7.89,0,0,0-1.33-.42l-11.13-2.47a8.08,8.08,0,0,1-6.32-7.72l-2.71-129.74c-.09-4.4-7.68-7.92-12.08-7.92h0A8.09,8.09,0,0,0,164,472.86Z"/><path class="cls-7" d="M319,412c-20.58-49.4-68.87-158-106.84-187.33a46,46,0,0,1-16.06-23.61c-3.4-11.66-6.75-26.76-5.48-37.74a17.68,17.68,0,0,1,1.13-4.34c2.38-6.07,8.87-26.28-5.84-35.33a79.45,79.45,0,0,1-10.8-7.77c-3.47-3-7.72-6.94-11.42-10.78a40.18,40.18,0,0,0-28.93-12.37A21.89,21.89,0,0,0,114.25,107c-7.6,20.16-19.93,58.7-19.24,94.82,0,0,2,29.36,9.64,53.85-25.33,33.76-58.21,86-77.21,149.4-2.8,9.35-5.3,18.94-7.43,28.75,0,0-2,19,60,26,0,0-7,18,55,19a67.93,67.93,0,0,0,30,7.11c9-.11,12,.89,21.83.24,8.73-.58,21.3-.85,32.22-12.35,0,0,65,0,66-20,0,0,38-5,44-17C329,436.77,325.3,427.19,319,412ZM124,172.77l16,41s-7.32,7.24-18.45,20.52C115.87,221.75,113.87,202.35,124,172.77Z"/><path class="cls-7" d="M151,472.86V620.69a8.08,8.08,0,0,0,8.08,8.08H192s36.56-1,.65-15.73a7.89,7.89,0,0,0-1.33-.42l-11.13-2.47a8.08,8.08,0,0,1-6.32-7.72l-2.71-129.74c-.09-4.4-7.68-7.92-12.08-7.92h0A8.09,8.09,0,0,0,151,472.86Z"/><path class="cls-7" d="M131.33,92.72l-.14-7.94a6.46,6.46,0,0,1,6.46-6.58h.14a6.47,6.47,0,0,1,6.47,6.46v8a6.47,6.47,0,0,1-6.47,6.47h0A6.47,6.47,0,0,1,131.33,92.72Z"/><path class="cls-7" d="M169.53,45.78c0,21.55-14.26,39-31.86,39a28.4,28.4,0,0,1-19.92-8.55c-7.28-7.14-12-18.13-12-30.46,0-21.55,14.26-39,31.87-39,10.32,0,19.5,6,25.32,15.34h0A44.61,44.61,0,0,1,169.53,45.78Z"/><ellipse class="cls-7" cx="170.08" cy="44.68" rx="4.94" ry="3.85"/><path class="cls-7" d="M163,22.11h0s-20.93,11-30.82,19.82c-7.75,6.88-13.76,27.15-14.42,34.3-7.28-7.14-12-18.13-12-30.46,0-21.55,14.26-39,31.87-39C148,6.77,157.17,12.78,163,22.11Z"/><path class="cls-7" d="M329,436.77c-6,12-44,17-44,17-1,20-66,20-66,20-10.92,11.5-23.49,11.77-32.22,12.35-9.78.65-12.78-.35-21.83-.24a67.93,67.93,0,0,1-30-7.11c-62-1-55-19-55-19-62-7-60-26-60-26q1.45-6.7,3.14-13.27,2-7.85,4.29-15.48c49,31.37,149.12,70.9,291.55,7,1.57,3.77,3,7.2,4.22,10.22C326.92,431.37,329,436.77,329,436.77Z"/><path class="cls-7" d="M329,436.77c-6,12-44,17-44,17-1,20-66,20-66,20-10.92,11.5-23.49,11.77-32.22,12.35-9.78.65-12.78-.35-21.83-.24a67.93,67.93,0,0,1-30-7.11c-62-1-55-19-55-19-62-7-60-26-60-26q1.45-6.7,3.14-13.27c43.26,27.18,159.45,82.14,300.06,1.76C326.92,431.37,329,436.77,329,436.77Z"/><path class="cls-8" d="M86.9,34.34S15.47,231,36.35,294.77s241.75,22,192.3-7.69-133-252.74-133-252.74Z"/><path class="cls-9" d="M144,471.86V619.69a8.08,8.08,0,0,0,8.08,8.08H185s36.56-1,.65-15.73a7.89,7.89,0,0,0-1.33-.42l-11.13-2.47a8.08,8.08,0,0,1-6.32-7.72l-2.71-129.74c-.09-4.4-7.68-7.92-12.08-7.92h0A8.09,8.09,0,0,0,144,471.86Z"/><path class="cls-2" d="M299,411c-20.58-49.4-68.87-158-106.84-187.33a46,46,0,0,1-16.06-23.61c-3.4-11.66-6.75-26.76-5.48-37.74a17.68,17.68,0,0,1,1.13-4.34c2.38-6.07,8.87-26.28-5.84-35.33a79.45,79.45,0,0,1-10.8-7.77c-3.47-3-7.72-6.94-11.42-10.78a40.18,40.18,0,0,0-28.93-12.37A21.89,21.89,0,0,0,94.25,106c-7.6,20.16-19.93,58.7-19.24,94.82,0,0,2,29.36,9.64,53.85C59.32,288.38,26.44,340.6,7.44,404,4.64,413.37,2.14,423,0,432.77c0,0-2,19,60,26,0,0-7,18,55,19a67.93,67.93,0,0,0,30,7.11c9-.11,12,.89,21.83.24,8.73-.58,21.3-.85,32.22-12.35,0,0,65,0,66-20,0,0,38-5,44-17C309,435.77,305.3,426.19,299,411ZM104,171.77l16,41s-7.32,7.24-18.45,20.52C95.87,220.75,93.87,201.35,104,171.77Z"/><path class="cls-3" d="M131,471.86V619.69a8.08,8.08,0,0,0,8.08,8.08H172s36.56-1,.65-15.73a7.89,7.89,0,0,0-1.33-.42l-11.13-2.47a8.08,8.08,0,0,1-6.32-7.72l-2.71-129.74c-.09-4.4-7.68-7.92-12.08-7.92h0A8.09,8.09,0,0,0,131,471.86Z"/><path class="cls-3" d="M111.33,91.72l-.14-7.94a6.46,6.46,0,0,1,6.46-6.58h.14a6.47,6.47,0,0,1,6.47,6.46v8a6.47,6.47,0,0,1-6.47,6.47h0A6.47,6.47,0,0,1,111.33,91.72Z"/><path class="cls-3" d="M149.53,44.78c0,21.55-14.26,39-31.86,39a28.4,28.4,0,0,1-19.92-8.55c-7.28-7.14-12-18.13-12-30.46,0-21.55,14.26-39,31.87-39,10.32,0,19.5,6,25.32,15.34h0A44.61,44.61,0,0,1,149.53,44.78Z"/><ellipse class="cls-3" cx="150.08" cy="43.68" rx="4.94" ry="3.85"/><path class="cls-8" d="M143,21.11h0s-20.93,11-30.82,19.82c-7.75,6.88-13.76,27.15-14.42,34.3-7.28-7.14-12-18.13-12-30.46,0-21.55,14.26-39,31.87-39C128,5.77,137.17,11.78,143,21.11Z"/><path class="cls-5" d="M309,435.77c-6,12-44,17-44,17-1,20-66,20-66,20-10.92,11.5-23.49,11.77-32.22,12.35-9.78.65-12.78-.35-21.83-.24A67.93,67.93,0,0,1,115,477.77c-62-1-55-19-55-19-62-7-60-26-60-26q1.46-6.7,3.14-13.27,2-7.85,4.29-15.48c49,31.37,149.12,70.9,291.55,7,1.57,3.77,3,7.2,4.22,10.22C306.92,430.37,309,435.77,309,435.77Z"/><path class="cls-2" d="M309,435.77c-6,12-44,17-44,17-1,20-66,20-66,20-10.92,11.5-23.49,11.77-32.22,12.35-9.78.65-12.78-.35-21.83-.24A67.93,67.93,0,0,1,115,477.77c-62-1-55-19-55-19-62-7-60-26-60-26q1.46-6.7,3.14-13.27c43.26,27.18,159.45,82.14,300.06,1.76C306.92,430.37,309,435.77,309,435.77Z"/><path class="cls-8" d="M233.68,496.11c-.5-3.48-2.54-11.31-10.52-3.83a19,19,0,0,0-2.26,2.56c-1.82,2.45-8.33,9.25-21,2.85a1.41,1.41,0,0,1-.36-.24c-1.35-1.2-11.12-9.47-10.18,3.87,0,.11,0,.22,0,.33-.09.73-.19,5.2,6,23.53,0,0,3.74,10.65-8,11.63h-.15c-2.17,0-52.3,0-63,59.42,0,0,0,.1,0,.15-.13,1.47-2.85,27.25-39.72,40.33a13.91,13.91,0,0,0-8.66,8.82c-1.76,5.55-.15,13,16.29,18.05a1.63,1.63,0,0,0,1.09,0c.91-.36,1.71-1.68-4.41-6.41a1.73,1.73,0,0,1-.44-.53c-1-1.87-5.22-11.41,11.79-16.68a81.94,81.94,0,0,0,10.59-4.11c6.18-2.9,16.27-6.29,20.33,0a1.74,1.74,0,0,0,1.46.82H186.8a1.7,1.7,0,0,0,1.7-1.52c.35-3.07-.11-9.7-10.73-9a1.72,1.72,0,0,1-1.69-2.41c2.53-5.68,8.6-18.24,13.09-19a2.09,2.09,0,0,0,.34-.08c1.23-.44,9.4-2.9,10.18,8.51a26.57,26.57,0,0,0,3.82,12.17c3.18,5.14,8.45,11,16.29,12h.34c1.45-.12,10.48-1.35.79-14.33a43.92,43.92,0,0,1-8.29-33c1.11-7.12,3.6-14.54,8.67-20.34a38.13,38.13,0,0,0,8.23-35.21l-.21-.73a7.09,7.09,0,0,1,1.21-5.32A34.85,34.85,0,0,0,234.6,500c-.06-.17-.11-.35-.16-.53A23.23,23.23,0,0,1,233.68,496.11Z"/></g></g></g></svg>