<svg xmlns="http://www.w3.org/2000/svg" viewBox="0 0 537 983.9"><defs><style>.cls-1{fill:#0b2559;}.cls-2{fill:#8ca3b8;}.cls-3{fill:#354f73;}.cls-4{fill:#6f8ca6;}.cls-5{fill:#c3d5d9;}.cls-6{fill:#9bb9bf;}.cls-7{fill:#081c43;}</style></defs><title>Calque 28 (2)</title><g id="Calque_2" data-name="Calque 2"><g id="contactPC"><g id="Calque_28" data-name="Calque 28"><path class="cls-1" d="M408.68,816.33c-.51-3.47-2.55-11.31-10.52-3.83a18.91,18.91,0,0,0-2.26,2.56c-1.83,2.46-8.34,9.25-21,2.86a2.25,2.25,0,0,1-.36-.24c-1.35-1.21-11.11-9.47-10.18,3.87a1.22,1.22,0,0,1,0,.33c-.09.73-.19,5.2,6,23.53,0,0,3.74,10.65-8,11.63h-.15c-2.17,0-52.3,0-63,59.43a.68.68,0,0,0,0,.14c-.13,1.47-2.85,27.26-39.71,40.33a13.88,13.88,0,0,0-8.66,8.83c-1.77,5.55-.16,13,16.29,18.05a1.6,1.6,0,0,0,1.08,0c.92-.37,1.71-1.68-4.4-6.42a1.6,1.6,0,0,1-.45-.52c-1-1.87-5.22-11.41,11.79-16.69a81.89,81.89,0,0,0,10.59-4.1c6.18-2.91,16.27-6.29,20.33,0a1.74,1.74,0,0,0,1.46.81h54.26a1.72,1.72,0,0,0,1.71-1.51c.34-3.07-.12-9.7-10.74-9a1.71,1.71,0,0,1-1.69-2.4c2.53-5.68,8.6-18.25,13.09-19l.34-.08c1.23-.44,9.41-2.91,10.19,8.51a26.56,26.56,0,0,0,3.81,12.16c3.18,5.15,8.46,11,16.29,12a1.29,1.29,0,0,0,.34,0c1.45-.11,10.48-1.34.79-14.32a43.94,43.94,0,0,1-8.28-33c1.11-7.11,3.59-14.54,8.66-20.33a38.11,38.11,0,0,0,8.23-35.21c-.07-.25-.13-.49-.21-.74a7.06,7.06,0,0,1,1.21-5.31,34.85,34.85,0,0,0,4.06-28.48c0-.18-.11-.35-.16-.53A21.83,21.83,0,0,1,408.68,816.33Z"/><path class="cls-1" d="M261.89,354.57S190.47,551.26,211.34,615s241.75,22,192.3-7.69-133-252.73-133-252.73Z"/><path class="cls-2" d="M319,792.08V939.92a8.08,8.08,0,0,0,8.08,8.08H360s36.56-1,.65-15.73a7.89,7.89,0,0,0-1.33-.42l-11.12-2.47a8.09,8.09,0,0,1-6.33-7.73l-2.71-129.74c-.09-4.39-7.68-7.91-12.08-7.91h0A8.08,8.08,0,0,0,319,792.08Z"/><path class="cls-3" d="M474,731.27c-20.58-49.4-68.87-158-106.84-187.33a46,46,0,0,1-16.06-23.61c-3.4-11.66-6.75-26.76-5.48-37.74a17.68,17.68,0,0,1,1.13-4.34c2.38-6.07,8.87-26.28-5.84-35.33a79.45,79.45,0,0,1-10.8-7.77c-3.47-3-7.72-6.94-11.42-10.78A40.18,40.18,0,0,0,289.74,412a21.89,21.89,0,0,0-20.5,14.18c-7.6,20.16-19.93,58.7-19.24,94.82,0,0,2,29.36,9.64,53.85-25.33,33.76-58.21,86-77.21,149.4-2.8,9.35-5.3,18.94-7.43,28.75,0,0-2,19,60,26,0,0-7,18,55,19A67.93,67.93,0,0,0,320,805.11c9.05-.11,12.05.89,21.83.24,8.73-.58,21.3-.85,32.22-12.35,0,0,65,0,66-20,0,0,38-5,44-17C484,756,480.29,746.42,474,731.27ZM279,492l16,41s-7.32,7.24-18.45,20.52C270.86,541,268.86,521.58,279,492Z"/><path class="cls-4" d="M306,792.08V939.92a8.08,8.08,0,0,0,8.08,8.08H347s36.56-1,.65-15.73a7.89,7.89,0,0,0-1.33-.42l-11.12-2.47a8.09,8.09,0,0,1-6.33-7.73l-2.71-129.74c-.09-4.39-7.68-7.91-12.08-7.91h0A8.08,8.08,0,0,0,306,792.08Z"/><path class="cls-4" d="M286.32,412l-.14-7.95a6.47,6.47,0,0,1,6.47-6.58h.13a6.47,6.47,0,0,1,6.47,6.47v7.95a6.46,6.46,0,0,1-6.47,6.46h0A6.46,6.46,0,0,1,286.32,412Z"/><path class="cls-4" d="M324.52,365c0,21.55-14.26,39-31.86,39a28.36,28.36,0,0,1-19.91-8.55c-7.29-7.14-12-18.13-12-30.46,0-21.55,14.26-39,31.87-39,10.33,0,19.5,6,25.33,15.34h0A44.61,44.61,0,0,1,324.52,365Z"/><ellipse class="cls-4" cx="325.07" cy="363.91" rx="4.94" ry="3.85"/><path class="cls-1" d="M318,341.34h0s-20.94,11-30.83,19.81c-7.74,6.89-13.75,27.16-14.41,34.31-7.29-7.14-12-18.13-12-30.46,0-21.55,14.26-39,31.87-39C303,326,312.16,332,318,341.34Z"/><path class="cls-5" d="M484,756c-6,12-44,17-44,17-1,20-66,20-66,20-10.92,11.5-23.49,11.77-32.22,12.35C332,806,329,805,320,805.11A67.93,67.93,0,0,1,290,798c-62-1-55-19-55-19-62-7-60-26-60-26q1.45-6.71,3.14-13.27,2-7.85,4.29-15.48c49,31.37,149.12,70.9,291.55,7,1.57,3.77,3,7.2,4.22,10.22C481.91,750.6,484,756,484,756Z"/><path class="cls-3" d="M484,756c-6,12-44,17-44,17-1,20-66,20-66,20-10.92,11.5-23.49,11.77-32.22,12.35C332,806,329,805,320,805.11A67.93,67.93,0,0,1,290,798c-62-1-55-19-55-19-62-7-60-26-60-26q1.45-6.71,3.14-13.27c43.26,27.18,159.45,82.14,300.06,1.76C481.91,750.6,484,756,484,756Z"/><path class="cls-1" d="M459.6,70.94A29.61,29.61,0,0,0,432,30.71a29.43,29.43,0,0,0-16.42,5,49.29,49.29,0,0,0-92,24.59c0,.83,0,1.66.06,2.49A44.37,44.37,0,0,0,338.36,149H451.71a39.43,39.43,0,0,0,7.89-78.06Z"/><path class="cls-3" d="M212.4,76.88A38,38,0,0,0,177,25.29a37.76,37.76,0,0,0-21.06,6.4,63.22,63.22,0,0,0-118,31.52c0,1.07,0,2.14.08,3.2A56.91,56.91,0,0,0,56.89,177h145.4A50.57,50.57,0,0,0,212.4,76.88Z"/><path class="cls-5" d="M501.8,191.89A33,33,0,0,0,471,147a32.79,32.79,0,0,0-18.32,5.57A55,55,0,0,0,350,180c0,.93,0,1.86.07,2.78A49.52,49.52,0,0,0,366.5,279H493a44,44,0,0,0,8.8-87.11Z"/><path class="cls-6" d="M189.24,193.36a27.94,27.94,0,0,0-26-38,27.71,27.71,0,0,0-15.49,4.71A46.5,46.5,0,0,0,60.9,183.3c0,.78,0,1.57.06,2.35A41.86,41.86,0,0,0,74.85,267h107a37.2,37.2,0,0,0,7.44-73.64Z"/><path class="cls-4" d="M337.4,163.65A24.25,24.25,0,0,0,339,155a24,24,0,0,0-37.32-19.95A40,40,0,0,0,227,155c0,.67,0,1.35.05,2A36,36,0,0,0,239,227h92a32,32,0,0,0,6.4-63.35Z"/><path class="cls-7" d="M289.5,184.67a23.21,23.21,0,0,0-23.18,23.19,3.87,3.87,0,0,0,7.73,0A15.47,15.47,0,0,1,289.5,192.4a3.87,3.87,0,0,0,0-7.73Zm-19.3,91.57a3.83,3.83,0,0,0,.64,2.13l5.92,8.9A3.89,3.89,0,0,0,280,289h19a3.89,3.89,0,0,0,3.22-1.72l5.91-8.9a3.87,3.87,0,0,0,.65-2.13V265.81H270.19Zm19.3-110.88a42.47,42.47,0,0,0-32,70.45c4,4.59,10.32,14.2,12.66,22.26h11.59v0a11.47,11.47,0,0,0-.52-3.39,76.24,76.24,0,0,0-15-26.49,30.91,30.91,0,1,1,46.53,0,76.25,76.25,0,0,0-15,26.44,11.84,11.84,0,0,0-.54,3.45v0h11.6c2.33-8.06,8.64-17.67,12.65-22.25a42.48,42.48,0,0,0-32-70.46Z"/></g></g></g></svg>