<svg xmlns="http://www.w3.org/2000/svg" viewBox="0 0 530 668"><defs><style>.cls-1{fill:#354f73;}.cls-2{fill:#9bb9bf;}.cls-3{fill:#6f8ca6;}.cls-4{fill:#c3d5d9;}.cls-5{fill:#f2f2f2;}</style></defs><title>Fichier 2</title><g id="Calque_2" data-name="Calque 2"><g id="contactPC"><circle class="cls-1" cx="260.5" cy="256.5" r="256.5"/><circle class="cls-2" cx="390" cy="528" r="140"/><circle class="cls-3" cx="134.5" cy="411.5" r="134.5"/><circle class="cls-4" cx="214" cy="503" r="67"/><path class="cls-5" d="M201.48,315H169.72l16.71,40.72a5.54,5.54,0,0,1-2.83,7.18l-14.72,6.42a5.29,5.29,0,0,1-7-2.91L146,327.75l-25.94,26.68c-3.46,3.56-9.07.82-9.07-3.84V221.93c0-4.91,6-7.3,9.07-3.84l85.15,87.59a5.48,5.48,0,0,1-3.74,9.32Z"/><path class="cls-5" d="M290.53,94.65a68.49,68.49,0,1,0,37.39,125.87,6.63,6.63,0,0,0,1.53-9.77l-2.81-3.43A6.6,6.6,0,0,0,318,205.9a50.81,50.81,0,1,1-27.45-93.57c27.65,0,50.81,15.91,50.81,44.18,0,10.71-5.83,22-16.06,23.11-4.8-.12-4.67-3.55-3.73-8.29L328,137.89a6.64,6.64,0,0,0-6.51-7.89H309.1a3.73,3.73,0,0,0-3.71,3.31v0c-4.05-5-11.17-6-16.56-6-20.59,0-38.06,17.19-38.06,41.83,0,18,10.16,29.24,26.51,29.24,7.45,0,15.84-4.32,20.71-10.59,2.63,9.42,11.22,9.42,19.53,9.42,30.07,0,41.5-19.78,41.5-40.71C359,118.86,328.64,94.65,290.53,94.65Zm-6,84.07c-6.15,0-10-4.31-10-11.26,0-12.42,8.5-20.08,16.19-20.08,6.16,0,9.83,4.21,9.83,11.26,0,12.44-9.35,20.08-16.06,20.08Z"/><path class="cls-5" d="M412.53,302.35H342.66a15,15,0,0,0-15,15V447.08a15,15,0,0,0,15,15h69.87a15,15,0,0,0,15-15V317.32A15,15,0,0,0,412.53,302.35ZM377.6,452.07a10,10,0,1,1,10-10A10,10,0,0,1,377.6,452.07Zm34.93-33.69a3.76,3.76,0,0,1-3.74,3.75H346.4a3.76,3.76,0,0,1-3.74-3.75V321.06a3.75,3.75,0,0,1,3.74-3.74h62.39a3.75,3.75,0,0,1,3.74,3.74Z"/></g></g></svg>